<svg width="44" height="44" viewBox="0 0 44 44" fill="none" xmlns="http://www.w3.org/2000/svg">
<path d="M7.87611 22L23.4448 6.00047C23.573 5.87154 23.6743 5.71846 23.7429 5.5501C23.8116 5.38174 23.8461 5.20145 23.8446 5.01964C23.8431 4.83784 23.8055 4.65814 23.7341 4.49095C23.6627 4.32375 23.5588 4.17238 23.4285 4.04559C23.2982 3.91881 23.1441 3.81912 22.975 3.7523C22.8059 3.68548 22.6253 3.65286 22.4435 3.65632C22.2617 3.65978 22.0824 3.69925 21.916 3.77246C21.7496 3.84567 21.5993 3.95115 21.4739 4.08281L4.97395 21.0411C4.72421 21.2978 4.58447 21.6418 4.58447 22C4.58447 22.3581 4.72421 22.7021 4.97395 22.9588L21.4739 39.9171C21.5993 40.0488 21.7496 40.1543 21.916 40.2275C22.0824 40.3007 22.2617 40.3402 22.4435 40.3436C22.6253 40.3471 22.8059 40.3145 22.975 40.2477C23.1441 40.1808 23.2982 40.0812 23.4285 39.9544C23.5588 39.8276 23.6627 39.6762 23.7341 39.509C23.8055 39.3418 23.8431 39.1621 23.8446 38.9803C23.8461 38.7985 23.8116 38.6182 23.7429 38.4498C23.6743 38.2815 23.573 38.1284 23.4448 37.9995L7.87611 22Z" fill="white" stroke="white" stroke-width="3"/>
</svg>
