<svg width="44" height="44" viewBox="0 0 44 44" fill="none" xmlns="http://www.w3.org/2000/svg">
<path d="M36.1239 22L20.5552 37.9995C20.427 38.1285 20.3257 38.2815 20.2571 38.4499C20.1884 38.6183 20.1539 38.7986 20.1554 38.9804C20.1569 39.1622 20.1945 39.3419 20.2659 39.5091C20.3373 39.6762 20.4412 39.8276 20.5715 39.9544C20.7018 40.0812 20.8559 40.1809 21.025 40.2477C21.1941 40.3145 21.3747 40.3471 21.5565 40.3437C21.7383 40.3402 21.9176 40.3007 22.084 40.2275C22.2504 40.1543 22.4007 40.0488 22.5261 39.9172L39.0261 22.9589C39.2758 22.7022 39.4155 22.3582 39.4155 22C39.4155 21.6419 39.2758 21.2979 39.0261 21.0412L22.5261 4.08285C22.4007 3.95119 22.2504 3.84571 22.084 3.77251C21.9176 3.6993 21.7383 3.65982 21.5565 3.65636C21.3747 3.6529 21.1941 3.68552 21.025 3.75235C20.8559 3.81916 20.7018 3.91885 20.5715 4.04564C20.4412 4.17243 20.3373 4.3238 20.2659 4.491C20.1945 4.65819 20.1569 4.83789 20.1554 5.01969C20.1539 5.2015 20.1884 5.38179 20.2571 5.55015C20.3257 5.71851 20.427 5.87159 20.5552 6.00052L36.1239 22Z" fill="white" stroke="white" stroke-width="3"/>
</svg>
