<svg width="52" height="52" viewBox="0 0 52 52" fill="none" xmlns="http://www.w3.org/2000/svg">
<path d="M48.5103 3.88575C48.4918 3.79593 48.448 3.71325 48.3841 3.64742C48.3203 3.58158 48.239 3.53531 48.1498 3.51403C42.2013 2.05966 28.4568 7.2424 21.0102 14.6859C19.6821 16.0033 18.4713 17.434 17.3916 18.9617C15.0952 18.7586 12.7989 18.9282 10.8418 19.7813C5.31986 22.2117 3.71213 28.5533 3.26424 31.2812C3.23883 31.4305 3.24842 31.5837 3.29223 31.7287C3.33605 31.8737 3.41291 32.0065 3.51676 32.1168C3.62061 32.227 3.74862 32.3117 3.89073 32.3641C4.03283 32.4165 4.18516 32.4352 4.33572 32.4187L13.2031 31.4407C13.2095 32.1092 13.2498 32.777 13.324 33.4415C13.3686 33.9029 13.5734 34.3341 13.9029 34.6602L17.3367 38.0859C17.6632 38.4149 18.0942 38.6196 18.5555 38.6648C19.2162 38.7387 19.8803 38.779 20.5451 38.7857L19.5721 47.6419C19.5559 47.7925 19.5748 47.9447 19.6272 48.0867C19.6797 48.2287 19.7643 48.3566 19.8745 48.4604C19.9847 48.5642 20.1175 48.6411 20.2624 48.685C20.4073 48.7289 20.5603 48.7386 20.7096 48.7134C23.4325 48.2767 29.7852 46.669 32.2014 41.147C33.0545 39.1899 33.2292 36.9048 33.0322 34.6196C34.5636 33.5398 35.998 32.3287 37.3191 30.9999C44.7891 23.5676 49.9423 10.1298 48.5103 3.88575ZM29.8665 22.1335C29.1844 21.4518 28.7198 20.5832 28.5314 19.6375C28.3431 18.6917 28.4394 17.7113 28.8083 16.8204C29.1772 15.9294 29.802 15.1678 30.6038 14.632C31.4055 14.0962 32.3482 13.8102 33.3125 13.8102C34.2768 13.8102 35.2195 14.0962 36.0212 14.632C36.823 15.1678 37.4478 15.9294 37.8167 16.8204C38.1856 17.7113 38.282 18.6917 38.0936 19.6375C37.9052 20.5832 37.4406 21.4518 36.7585 22.1335C36.3062 22.5864 35.7691 22.9458 35.1778 23.191C34.5865 23.4361 33.9526 23.5623 33.3125 23.5623C32.6724 23.5623 32.0386 23.4361 31.4473 23.191C30.856 22.9458 30.3188 22.5864 29.8665 22.1335Z" fill="#FF6428"/>
<path d="M17.1031 40.5671C16.5466 41.1247 15.6538 41.342 14.5793 41.5279C12.1652 41.9392 10.0334 39.8531 10.467 37.4126C10.6326 36.4873 11.1221 35.1904 11.4268 34.8857C11.4934 34.8204 11.5377 34.7358 11.5535 34.6438C11.5692 34.5519 11.5556 34.4573 11.5146 34.3736C11.4736 34.2898 11.4072 34.2211 11.3249 34.1772C11.2426 34.1333 11.1485 34.1165 11.0561 34.1291C9.70608 34.2942 8.45014 34.9063 7.4882 35.8678C5.10047 38.2576 4.875 47.125 4.875 47.125C4.875 47.125 13.7475 46.8995 16.1352 44.5098C17.0997 43.5486 17.7125 42.2907 17.875 40.9388C17.9126 40.5143 17.3956 40.2614 17.1031 40.5671Z" fill="#FF6428"/>
</svg>
