<svg width="52" height="52" viewBox="0 0 52 52" fill="none" xmlns="http://www.w3.org/2000/svg">
<path d="M48.5102 3.88575C48.4916 3.79593 48.4479 3.71325 48.384 3.64742C48.3202 3.58158 48.2389 3.53531 48.1496 3.51403C42.2011 2.05966 28.4567 7.2424 21.0101 14.6859C19.682 16.0033 18.4712 17.434 17.3915 18.9617C15.0951 18.7586 12.7988 18.9282 10.8417 19.7813C5.31974 22.2117 3.71201 28.5533 3.26412 31.2812C3.23871 31.4305 3.24829 31.5837 3.29211 31.7287C3.33593 31.8737 3.41278 32.0065 3.51663 32.1168C3.62048 32.227 3.7485 32.3117 3.8906 32.3641C4.03271 32.4165 4.18504 32.4352 4.3356 32.4187L13.203 31.4407C13.2093 32.1092 13.2497 32.777 13.3239 33.4415C13.3685 33.9029 13.5733 34.3341 13.9028 34.6602L17.3366 38.0859C17.6631 38.4149 18.0941 38.6196 18.5554 38.6648C19.2161 38.7387 19.8801 38.779 20.545 38.7857L19.572 47.6419C19.5558 47.7925 19.5746 47.9447 19.6271 48.0867C19.6796 48.2287 19.7642 48.3566 19.8744 48.4604C19.9846 48.5642 20.1174 48.6411 20.2622 48.685C20.4071 48.7289 20.5602 48.7386 20.7095 48.7134C23.4324 48.2767 29.7851 46.669 32.2013 41.147C33.0544 39.1899 33.2291 36.9048 33.0321 34.6196C34.5634 33.5398 35.9979 32.3287 37.319 30.9999C44.7889 23.5676 49.9422 10.1298 48.5102 3.88575ZM29.8664 22.1335C29.1843 21.4518 28.7197 20.5832 28.5313 19.6375C28.3429 18.6917 28.4393 17.7113 28.8082 16.8204C29.1771 15.9294 29.8019 15.1678 30.6036 14.632C31.4054 14.0962 32.3481 13.8102 33.3124 13.8102C34.2767 13.8102 35.2194 14.0962 36.0211 14.632C36.8229 15.1678 37.4477 15.9294 37.8166 16.8204C38.1855 17.7113 38.2818 18.6917 38.0935 19.6375C37.9051 20.5832 37.4405 21.4518 36.7584 22.1335C36.3061 22.5864 35.7689 22.9458 35.1776 23.191C34.5863 23.4361 33.9525 23.5623 33.3124 23.5623C32.6723 23.5623 32.0384 23.4361 31.4471 23.191C30.8558 22.9458 30.3187 22.5864 29.8664 22.1335Z" fill="#FFA200"/>
<path d="M17.1031 40.5671C16.5466 41.1247 15.6538 41.342 14.5793 41.5279C12.1652 41.9392 10.0334 39.8531 10.467 37.4126C10.6326 36.4873 11.1221 35.1904 11.4268 34.8857C11.4934 34.8204 11.5377 34.7358 11.5535 34.6438C11.5692 34.5519 11.5556 34.4573 11.5146 34.3736C11.4736 34.2898 11.4072 34.2211 11.3249 34.1772C11.2426 34.1333 11.1485 34.1165 11.0561 34.1291C9.70608 34.2942 8.45014 34.9063 7.4882 35.8678C5.10047 38.2576 4.875 47.125 4.875 47.125C4.875 47.125 13.7475 46.8995 16.1352 44.5098C17.0997 43.5486 17.7125 42.2907 17.875 40.9388C17.9126 40.5143 17.3956 40.2614 17.1031 40.5671Z" fill="#FFA200"/>
</svg>
