<?xml version="1.0" encoding="utf-8"?>
<!-- Generator: Adobe Illustrator 25.4.1, SVG Export Plug-In . SVG Version: 6.00 Build 0)  -->
<svg version="1.0" id="레이어_1" xmlns="http://www.w3.org/2000/svg" xmlns:xlink="http://www.w3.org/1999/xlink" x="0px"
	 y="0px" viewBox="0 0 340.2 121.8" enable-background="new 0 0 340.2 121.8" xml:space="preserve">
<g>
	<path d="M38.8,71.9c0,3.9-0.6,7-1.9,9.3c-1.3,2.3-2.9,4-5,5.2c-2,1.2-4.3,2-6.8,2.3c-2.5,0.4-4.9,0.5-7.3,0.5c-3.9,0-7-0.5-9.4-1.6
		c-2.4-1.1-4.3-2.5-5.5-4.3c-1.3-1.8-2.1-3.9-2.5-6.2c-0.4-2.4-0.5-4.8-0.3-7.4h12.6c0,1.4,0.1,2.8,0.2,4.1c0.1,1.3,0.4,2.4,0.8,3.4
		c0.4,1,1.2,1.7,2.1,2.3c1,0.6,2.3,0.8,4,0.8c2.1,0,3.7-0.6,4.7-1.9c1.1-1.2,1.6-2.9,1.6-5c0-1.8-0.6-3.3-1.9-4.7
		c-1.2-1.3-2.8-2.6-4.7-3.8c-1.9-1.2-3.9-2.4-6.1-3.6c-2.2-1.2-4.2-2.6-6.1-4.2c-1.9-1.6-3.5-3.4-4.7-5.5c-1.2-2.1-1.9-4.7-1.9-7.7
		c0-2.3,0.3-4.5,1-6.6c0.6-2.1,1.7-3.8,3.2-5.4c1.5-1.5,3.5-2.7,6.1-3.6c2.6-0.9,5.7-1.3,9.6-1.3c6.1,0,10.6,1.4,13.6,4.3
		c3,2.9,4.3,7.5,3.9,13.7H25.9c0-1.1-0.1-2.2-0.2-3.3c-0.1-1.1-0.4-2.1-0.8-2.9c-0.4-0.9-1-1.6-1.7-2.1c-0.7-0.5-1.8-0.8-3-0.8
		c-2.1,0-3.6,0.5-4.8,1.6c-1.1,1.1-1.7,2.7-1.7,4.8c0,1.9,0.6,3.5,1.9,4.8c1.2,1.3,2.8,2.6,4.7,3.7c1.9,1.1,3.9,2.2,6.1,3.4
		c2.2,1.1,4.2,2.5,6.1,4c1.9,1.5,3.5,3.4,4.7,5.5C38.2,66.1,38.8,68.7,38.8,71.9z"/>
	<path d="M83.3,28.2v10h-14v50.1H56.7V38.2h-14v-10H83.3z"/>
	<path d="M148,88.3h-12.6V28.2h23.2c4.3,0,7.8,1.3,10.3,4c2.5,2.7,3.8,6.6,3.8,11.7c0,3.8-0.8,7.1-2.5,9.7c-1.7,2.7-4.6,4.3-8.6,5
		v0.2c0.7,0.1,1.6,0.3,2.8,0.5c1.2,0.2,2.4,0.7,3.6,1.5c1.2,0.8,2.2,1.9,3.1,3.5c0.9,1.5,1.3,3.6,1.3,6.4c0,0.9,0,2.3,0,4
		c0,1.7,0.1,3.5,0.2,5.3c0.1,1.8,0.3,3.5,0.5,5.1c0.2,1.6,0.4,2.6,0.7,3.2h-12.3c-0.8-1.8-1.3-3.7-1.3-5.7c0-2,0-4,0-5.9
		c0-1.8,0-3.5,0-5.1c0-1.6-0.3-3-0.8-4.2c-0.5-1.2-1.4-2.1-2.7-2.9c-1.2-0.7-3.1-1.1-5.4-1.1H148V88.3z M148,54.2h5.6
		c1.2,0,2.2-0.3,3.1-0.8c0.8-0.6,1.5-1.3,2-2.1c0.5-0.9,0.8-1.8,1-2.9c0.2-1.1,0.3-2.1,0.3-3c0-2.9-0.6-4.9-1.7-6.1
		c-1.1-1.2-2.7-1.8-4.7-1.8H148V54.2z"/>
	<path fill="#878787" d="M219,71.9c0,3.9-0.6,7-1.9,9.3c-1.3,2.3-2.9,4-5,5.2c-2,1.2-4.3,2-6.8,2.3c-2.5,0.4-4.9,0.5-7.3,0.5
		c-3.9,0-7-0.5-9.4-1.6c-2.4-1.1-4.3-2.5-5.5-4.3c-1.3-1.8-2.1-3.9-2.5-6.2c-0.4-2.4-0.5-4.8-0.3-7.4h12.6c0,1.4,0.1,2.8,0.2,4.1
		c0.1,1.3,0.4,2.4,0.8,3.4c0.4,1,1.2,1.7,2.1,2.3c1,0.6,2.3,0.8,4,0.8c2.1,0,3.7-0.6,4.7-1.9c1.1-1.2,1.6-2.9,1.6-5
		c0-1.8-0.6-3.3-1.9-4.7c-1.2-1.3-2.8-2.6-4.7-3.8c-1.9-1.2-3.9-2.4-6.1-3.6c-2.2-1.2-4.2-2.6-6.1-4.2c-1.9-1.6-3.5-3.4-4.7-5.5
		c-1.2-2.1-1.9-4.7-1.9-7.7c0-2.3,0.3-4.5,1-6.6c0.6-2.1,1.7-3.8,3.2-5.4c1.5-1.5,3.5-2.7,6.1-3.6c2.6-0.9,5.7-1.3,9.6-1.3
		c6.1,0,10.6,1.4,13.6,4.3c3,2.9,4.3,7.5,3.9,13.7H206c0-1.1-0.1-2.2-0.2-3.3c-0.1-1.1-0.4-2.1-0.8-2.9c-0.4-0.9-1-1.6-1.7-2.1
		c-0.7-0.5-1.8-0.8-3-0.8c-2.1,0-3.6,0.5-4.8,1.6c-1.1,1.1-1.7,2.7-1.7,4.8c0,1.9,0.6,3.5,1.9,4.8c1.2,1.3,2.8,2.6,4.7,3.7
		c1.9,1.1,3.9,2.2,6.1,3.4c2.2,1.1,4.2,2.5,6.1,4c1.9,1.5,3.5,3.4,4.7,5.5C218.4,66.1,219,68.7,219,71.9z"/>
	<path fill="#878787" d="M254.9,52.2v-24h12.6v60.1h-12.6V61.5h-14.4v26.8H228V28.2h12.6v24H254.9z"/>
	<path fill="#878787" d="M278.8,88.3V28.2h12.6v60.1H278.8z"/>
	<path fill="#878787" d="M301.6,28.2h22.6c2.9,0,5.3,0.4,7.4,1.2c2,0.8,3.7,2,5,3.6c1.3,1.6,2.2,3.5,2.8,5.7
		c0.6,2.2,0.9,4.7,0.9,7.4c0,1.7-0.2,3.6-0.5,5.7c-0.4,2.1-1.1,4-2.3,5.7c-1.2,1.8-2.9,3.3-5.1,4.5c-2.2,1.2-5.2,1.8-8.8,1.8h-9.3
		v24.5h-12.6V28.2z M314.1,54.6h7c0.9,0,1.8-0.2,2.6-0.7c0.8-0.5,1.4-1.1,2-1.8c0.6-0.7,1-1.6,1.3-2.6c0.3-1,0.5-2,0.5-3
		c0-1.2-0.1-2.4-0.3-3.5c-0.2-1.1-0.6-2.1-1.1-2.9c-0.5-0.8-1.2-1.5-2.2-2c-0.9-0.5-2.1-0.7-3.5-0.7h-6.3V54.6z"/>
	<g>
		<path d="M1.8,121.8v-18.2h9.4v2H4.2v5.9h6.6v2H4.2v6.3h7.2v2H1.8z"/>
		<path d="M39.2,103.5v18.2h-3.2l-7.2-15.8h-0.1v15.8h-2.1v-18.2H30l7.1,15.6h0.1v-15.6H39.2z"/>
		<path d="M65.8,103.5v2H61v16.2h-2.3v-16.2h-4.8v-2H65.8z"/>
		<path d="M80.6,121.8v-18.2H90v2h-7.1v5.9h6.6v2h-6.6v6.3h7.2v2H80.6z"/>
		<path d="M107.6,113.4v8.4h-2.3v-18.2h6.3c0.8,0,1.5,0.1,2,0.4c0.6,0.3,1,0.6,1.4,1c0.3,0.4,0.6,0.9,0.7,1.5
			c0.2,0.5,0.2,1.1,0.2,1.7c0,1.1-0.3,2-0.9,2.8c-0.6,0.8-1.4,1.2-2.5,1.4v0.1c0.5,0.1,1,0.2,1.3,0.4c0.4,0.2,0.7,0.4,0.9,0.7
			c0.2,0.3,0.4,0.8,0.5,1.4c0.1,0.6,0.2,1.3,0.2,2.2c0,0.2,0,0.5,0.1,0.9c0,0.4,0.1,0.9,0.1,1.3c0.1,0.5,0.1,0.9,0.2,1.4
			c0.1,0.5,0.2,0.8,0.2,1.1h-2.4c-0.2-0.3-0.3-0.7-0.4-1.1c-0.1-0.4-0.1-0.9-0.2-1.5c0-0.5-0.1-1.1-0.1-1.7c0-0.6-0.1-1.2-0.1-1.8
			c-0.1-0.6-0.2-1-0.4-1.3c-0.2-0.3-0.5-0.5-0.7-0.7c-0.3-0.2-0.6-0.2-0.9-0.3c-0.3,0-0.5-0.1-0.7-0.1H107.6z M107.6,111.3h3.5
			c0.4,0,0.8-0.1,1.1-0.3c0.3-0.2,0.6-0.4,0.8-0.7c0.2-0.3,0.4-0.6,0.5-1c0.1-0.4,0.2-0.7,0.2-1.2c0-0.3,0-0.6-0.1-1
			c-0.1-0.3-0.2-0.6-0.4-0.9c-0.2-0.3-0.4-0.5-0.8-0.6c-0.3-0.2-0.7-0.3-1.1-0.3h-3.5V111.3z"/>
		<path d="M142.6,103.5v2h-4.8v16.2h-2.3v-16.2h-4.8v-2H142.6z"/>
		<path d="M161.6,103.5h3l5.9,18.2h-2.6l-1.3-4.3h-7.1l-1.4,4.3h-2.4L161.6,103.5z M163,105.7L163,105.7l-2.9,9.7h5.8L163,105.7z"/>
		<path d="M187.7,121.8h-2.3v-18.2h2.3V121.8z"/>
		<path d="M218.1,103.5v18.2H215l-7.2-15.8h-0.1v15.8h-2.1v-18.2h3.3l7.1,15.6h0.1v-15.6H218.1z"/>
		<path d="M236.7,121.8h-2.2v-18.2h3.8l4.6,15.3h0.1l4.7-15.3h3.8v18.2h-2.3v-16.2h-0.1l-5.1,16.2h-2.2l-5-16.2h-0.1V121.8z"/>
		<path d="M267.7,121.8v-18.2h9.4v2H270v5.9h6.6v2H270v6.3h7.2v2H267.7z"/>
		<path d="M306.6,103.5v18.2h-3.2l-7.2-15.8h-0.1v15.8h-2.1v-18.2h3.3l7.1,15.6h0.1v-15.6H306.6z"/>
		<path d="M333.2,103.5v2h-4.8v16.2h-2.3v-16.2h-4.8v-2H333.2z"/>
	</g>
	<g>
		<g>
			<path d="M101.7,72.6c-0.9-0.2-1.2,0.1-1.5,0.5c-0.3,0.4-1.4,2.7-2.2,4.7c-0.8,2-1.6,4.7-1.7,5.2c-0.1,0.5,0.1,1.6,0.9,1.6
				c0.8,0,1.1-0.8,1.2-1c0.1-0.2,1.3-3.4,1.7-4.5c0.4-1.1,1.5-3.9,1.8-5C102.4,73.1,101.7,72.6,101.7,72.6z"/>
			<path d="M105.7,77.5c-0.1-0.9-0.9-1-0.9-1s-1.1-0.2-1.2,1s-0.3,10.5-0.3,12.1s-0.2,3.5,0.9,3.5c1.2,0,1.1-1.2,1.1-1.2
				C105.6,87.2,105.7,78.4,105.7,77.5z"/>
			<path d="M111.6,76.7c-0.6-1.4-1.3-1-1.5-0.9c-0.2,0.1-0.5,0.2-0.6,0.8c-0.1,0.6,1.6,7.3,2,8.9c0.4,1.6,0.9,2,1.8,1.7
				s0.5-1.9,0.5-1.9C113.6,82.9,112.2,78.1,111.6,76.7z"/>
			<path d="M126,58c-0.2-5.5-0.7-7.6-2.2-9.8c-1.5-2.2-3.8-2.6-3.8-2.6s0.3-3.8-0.2-11.7c-0.5-7.9-4.5-18.3-6.3-22.1
				c-1.2-2.4-3.7-7.2-5.4-10.3c-0.9-1.6-3-2-4.4-0.8c-9,8.1-11.4,23.2-11.4,23.2c-1.2,5.7-2.5,12.7-2.5,21.1c0,0.4,0,0.9,0,1.3l0,0
				l-2.1,1.3L83.5,58c0,0-0.5,1-0.4,2c0,0.9,1.4,13.5,1.4,13.5s0.2,2.3,1.8,2.3s2.7-2,3.9-3.3c1.1-1.3,5-5.5,6.1-5.6l0,0
				c0.9,0.2,4.8,0.9,10.3,0.9c4.2,0,6-0.2,7.4-0.8c1.8,1.8,9.3,9.1,10.6,9.1c0.9,0,1.1-2.1,1.4-3.9C126.3,70.3,126.3,63.5,126,58z
				 M105.2,5.5c0,0,2.7,4.4,3,5.7c0.3,1.2,2.1,5.2,2.9,6.9c0.7,1.7,2.1,5.7,2.1,5.7H96.9C96.9,23.9,99.3,10.9,105.2,5.5z M88,67.8
				c-0.2-1.1-0.8-6.3-0.9-7.8c0-1.5,0.2-1.8,1.2-4.2c0.9-2.2,1.9-3.5,2.1-3.8c0.7,5,2,9.7,2.3,11.4c0,0.1,0,0.1,0.1,0.2
				C91.3,64.6,88,67.8,88,67.8z M106.6,63.4c-3.9,0-7.4-0.3-8.9-0.5c-0.4,0-0.8-0.4-0.9-0.8c-0.6-2.5-2.5-11.2-2.5-17.1
				c0-6.9,1-12.1,1-12.1h20c0,0,0.7,4,0.7,8.3c0,3.9-1.3,17.3-1.8,21.1c-0.1,0.5-0.5,0.8-0.9,0.9C112.2,63.3,110,63.4,106.6,63.4z
				 M121.8,68.4c0,0-2-2-4.3-3.9c1.3-2.2,1.4-5.6,1.4-5.6l0.7-8.6c0.7,0.6,2.1,2.2,2.3,5.6C122.2,60.4,121.8,68.4,121.8,68.4z"/>
		</g>
		<polygon fill="#FFA200" points="114.3,45.6 107.9,44.6 105.1,39 102.4,44.6 96,45.6 100.6,49.9 99.5,56.5 105.1,53.3 110.8,56.5 
			109.7,49.9 		"/>
	</g>
</g>
</svg>
